<mxfile host="app.diagrams.net" modified="2024-03-22T18:24:27.565Z" agent="Mozilla/5.0 (X11; Linux x86_64) AppleWebKit/537.36 (KHTML, like Gecko) Chrome/122.0.0.0 Safari/537.36" etag="F4S0W5I55jFVQJ0sMH3F" version="24.0.7" type="device">
  <diagram name="Page-1" id="OrtiCgSYBfdPpfkaP5lF">
    <mxGraphModel dx="925" dy="483" grid="0" gridSize="10" guides="1" tooltips="1" connect="1" arrows="1" fold="1" page="1" pageScale="1" pageWidth="1169" pageHeight="827" math="0" shadow="0">
      <root>
        <mxCell id="0" />
        <mxCell id="1" parent="0" />
        <mxCell id="7WSqbNIsx2HVRGoTnnqX-1" value="housing_data" style="rounded=0;whiteSpace=wrap;html=1;" vertex="1" parent="1">
          <mxGeometry x="500" y="240" width="120" height="50" as="geometry" />
        </mxCell>
        <mxCell id="7WSqbNIsx2HVRGoTnnqX-3" value="country" style="rounded=0;whiteSpace=wrap;html=1;" vertex="1" parent="1">
          <mxGeometry x="500" y="470" width="120" height="40" as="geometry" />
        </mxCell>
        <mxCell id="7WSqbNIsx2HVRGoTnnqX-4" value="country_state" style="rounded=0;whiteSpace=wrap;html=1;" vertex="1" parent="1">
          <mxGeometry x="685" y="380" width="120" height="40" as="geometry" />
        </mxCell>
        <mxCell id="7WSqbNIsx2HVRGoTnnqX-7" value="N" style="edgeStyle=orthogonalEdgeStyle;rounded=0;orthogonalLoop=1;jettySize=auto;html=1;endArrow=none;endFill=0;strokeWidth=3;" edge="1" parent="1" source="7WSqbNIsx2HVRGoTnnqX-6" target="7WSqbNIsx2HVRGoTnnqX-1">
          <mxGeometry x="0.6667" y="-10" relative="1" as="geometry">
            <mxPoint as="offset" />
          </mxGeometry>
        </mxCell>
        <mxCell id="7WSqbNIsx2HVRGoTnnqX-8" value="1" style="edgeStyle=orthogonalEdgeStyle;rounded=0;orthogonalLoop=1;jettySize=auto;html=1;strokeColor=default;align=center;verticalAlign=middle;fontFamily=Helvetica;fontSize=11;fontColor=default;labelBackgroundColor=default;endArrow=none;endFill=0;" edge="1" parent="1" source="7WSqbNIsx2HVRGoTnnqX-6" target="7WSqbNIsx2HVRGoTnnqX-3">
          <mxGeometry x="0.64" y="8" relative="1" as="geometry">
            <mxPoint as="offset" />
          </mxGeometry>
        </mxCell>
        <mxCell id="7WSqbNIsx2HVRGoTnnqX-6" value="&lt;font style=&quot;font-size: 8px;&quot;&gt;COUNTRY_ID&lt;/font&gt;" style="rhombus;whiteSpace=wrap;html=1;" vertex="1" parent="1">
          <mxGeometry x="525" y="350" width="70" height="70" as="geometry" />
        </mxCell>
        <mxCell id="7WSqbNIsx2HVRGoTnnqX-10" value="1" style="edgeStyle=orthogonalEdgeStyle;rounded=0;orthogonalLoop=1;jettySize=auto;html=1;strokeColor=default;align=center;verticalAlign=middle;fontFamily=Helvetica;fontSize=11;fontColor=default;labelBackgroundColor=default;endArrow=none;endFill=0;entryX=1;entryY=0.5;entryDx=0;entryDy=0;exitX=0;exitY=0.5;exitDx=0;exitDy=0;" edge="1" parent="1" source="7WSqbNIsx2HVRGoTnnqX-56" target="7WSqbNIsx2HVRGoTnnqX-3">
          <mxGeometry x="0.8526" y="-9" relative="1" as="geometry">
            <mxPoint x="560" y="550" as="sourcePoint" />
            <mxPoint as="offset" />
          </mxGeometry>
        </mxCell>
        <mxCell id="7WSqbNIsx2HVRGoTnnqX-11" value="" style="edgeStyle=orthogonalEdgeStyle;rounded=0;orthogonalLoop=1;jettySize=auto;html=1;strokeColor=default;align=center;verticalAlign=middle;fontFamily=Helvetica;fontSize=11;fontColor=default;labelBackgroundColor=default;endArrow=none;endFill=0;strokeWidth=1;" edge="1" parent="1" source="7WSqbNIsx2HVRGoTnnqX-9" target="7WSqbNIsx2HVRGoTnnqX-4">
          <mxGeometry relative="1" as="geometry" />
        </mxCell>
        <mxCell id="7WSqbNIsx2HVRGoTnnqX-12" value="N" style="edgeLabel;html=1;align=center;verticalAlign=middle;resizable=0;points=[];fontFamily=Helvetica;fontSize=11;fontColor=default;labelBackgroundColor=default;" vertex="1" connectable="0" parent="7WSqbNIsx2HVRGoTnnqX-11">
          <mxGeometry x="-0.1086" y="-1" relative="1" as="geometry">
            <mxPoint x="9" y="2" as="offset" />
          </mxGeometry>
        </mxCell>
        <mxCell id="7WSqbNIsx2HVRGoTnnqX-57" style="edgeStyle=orthogonalEdgeStyle;rounded=0;orthogonalLoop=1;jettySize=auto;html=1;exitX=0.5;exitY=0;exitDx=0;exitDy=0;entryX=1;entryY=0.5;entryDx=0;entryDy=0;strokeColor=default;align=center;verticalAlign=middle;fontFamily=Helvetica;fontSize=11;fontColor=default;labelBackgroundColor=default;endArrow=none;endFill=0;" edge="1" parent="1" source="7WSqbNIsx2HVRGoTnnqX-9" target="7WSqbNIsx2HVRGoTnnqX-1">
          <mxGeometry relative="1" as="geometry" />
        </mxCell>
        <mxCell id="7WSqbNIsx2HVRGoTnnqX-58" value="1" style="edgeLabel;html=1;align=center;verticalAlign=middle;resizable=0;points=[];fontFamily=Helvetica;fontSize=11;fontColor=default;labelBackgroundColor=default;" vertex="1" connectable="0" parent="7WSqbNIsx2HVRGoTnnqX-57">
          <mxGeometry x="-0.0967" y="-1" relative="1" as="geometry">
            <mxPoint x="-77" y="9" as="offset" />
          </mxGeometry>
        </mxCell>
        <mxCell id="7WSqbNIsx2HVRGoTnnqX-9" value="&lt;font style=&quot;font-size: 8px;&quot;&gt;STATE_ID&lt;/font&gt;" style="rhombus;whiteSpace=wrap;html=1;" vertex="1" parent="1">
          <mxGeometry x="715" y="290" width="60" height="60" as="geometry" />
        </mxCell>
        <mxCell id="7WSqbNIsx2HVRGoTnnqX-20" style="edgeStyle=orthogonalEdgeStyle;rounded=0;orthogonalLoop=1;jettySize=auto;html=1;exitX=0;exitY=0.5;exitDx=0;exitDy=0;entryX=1;entryY=0.5;entryDx=0;entryDy=0;strokeColor=default;align=center;verticalAlign=middle;fontFamily=Helvetica;fontSize=11;fontColor=default;labelBackgroundColor=default;endArrow=none;endFill=0;" edge="1" parent="1" source="7WSqbNIsx2HVRGoTnnqX-13" target="7WSqbNIsx2HVRGoTnnqX-4">
          <mxGeometry relative="1" as="geometry" />
        </mxCell>
        <mxCell id="7WSqbNIsx2HVRGoTnnqX-13" value="name" style="ellipse;whiteSpace=wrap;html=1;fontFamily=Helvetica;fontSize=11;fontColor=default;labelBackgroundColor=default;" vertex="1" parent="1">
          <mxGeometry x="845" y="385" width="60" height="30" as="geometry" />
        </mxCell>
        <mxCell id="7WSqbNIsx2HVRGoTnnqX-17" value="" style="edgeStyle=orthogonalEdgeStyle;rounded=0;orthogonalLoop=1;jettySize=auto;html=1;strokeColor=default;align=center;verticalAlign=middle;fontFamily=Helvetica;fontSize=11;fontColor=default;labelBackgroundColor=default;endArrow=none;endFill=0;entryX=1;entryY=0.25;entryDx=0;entryDy=0;" edge="1" parent="1" source="7WSqbNIsx2HVRGoTnnqX-14" target="7WSqbNIsx2HVRGoTnnqX-4">
          <mxGeometry relative="1" as="geometry" />
        </mxCell>
        <mxCell id="7WSqbNIsx2HVRGoTnnqX-14" value="id" style="ellipse;whiteSpace=wrap;html=1;fontFamily=Helvetica;fontSize=11;fontColor=default;labelBackgroundColor=default;" vertex="1" parent="1">
          <mxGeometry x="845" y="340" width="60" height="30" as="geometry" />
        </mxCell>
        <mxCell id="7WSqbNIsx2HVRGoTnnqX-21" style="edgeStyle=orthogonalEdgeStyle;rounded=0;orthogonalLoop=1;jettySize=auto;html=1;exitX=0;exitY=0.5;exitDx=0;exitDy=0;entryX=1;entryY=0.75;entryDx=0;entryDy=0;strokeColor=default;align=center;verticalAlign=middle;fontFamily=Helvetica;fontSize=11;fontColor=default;labelBackgroundColor=default;endArrow=none;endFill=0;" edge="1" parent="1" source="7WSqbNIsx2HVRGoTnnqX-15" target="7WSqbNIsx2HVRGoTnnqX-4">
          <mxGeometry relative="1" as="geometry" />
        </mxCell>
        <mxCell id="7WSqbNIsx2HVRGoTnnqX-15" value="abbreviation" style="ellipse;whiteSpace=wrap;html=1;fontFamily=Helvetica;fontSize=11;fontColor=default;labelBackgroundColor=default;" vertex="1" parent="1">
          <mxGeometry x="835" y="430" width="80" height="30" as="geometry" />
        </mxCell>
        <mxCell id="7WSqbNIsx2HVRGoTnnqX-43" value="" style="edgeStyle=orthogonalEdgeStyle;rounded=0;orthogonalLoop=1;jettySize=auto;html=1;strokeColor=default;align=center;verticalAlign=middle;fontFamily=Helvetica;fontSize=11;fontColor=default;labelBackgroundColor=default;endArrow=none;endFill=0;entryX=0.079;entryY=0;entryDx=0;entryDy=0;entryPerimeter=0;" edge="1" parent="1" source="7WSqbNIsx2HVRGoTnnqX-27" target="7WSqbNIsx2HVRGoTnnqX-1">
          <mxGeometry relative="1" as="geometry" />
        </mxCell>
        <mxCell id="7WSqbNIsx2HVRGoTnnqX-27" value="id" style="ellipse;whiteSpace=wrap;html=1;fontFamily=Helvetica;fontSize=11;fontColor=default;labelBackgroundColor=default;" vertex="1" parent="1">
          <mxGeometry x="450" y="160" width="60" height="30" as="geometry" />
        </mxCell>
        <mxCell id="7WSqbNIsx2HVRGoTnnqX-44" value="" style="edgeStyle=orthogonalEdgeStyle;rounded=0;orthogonalLoop=1;jettySize=auto;html=1;strokeColor=default;align=center;verticalAlign=middle;fontFamily=Helvetica;fontSize=11;fontColor=default;labelBackgroundColor=default;endArrow=none;endFill=0;" edge="1" parent="1" source="7WSqbNIsx2HVRGoTnnqX-29" target="7WSqbNIsx2HVRGoTnnqX-1">
          <mxGeometry relative="1" as="geometry" />
        </mxCell>
        <mxCell id="7WSqbNIsx2HVRGoTnnqX-29" value="year" style="ellipse;whiteSpace=wrap;html=1;fontFamily=Helvetica;fontSize=11;fontColor=default;labelBackgroundColor=default;" vertex="1" parent="1">
          <mxGeometry x="530" y="160" width="60" height="30" as="geometry" />
        </mxCell>
        <mxCell id="7WSqbNIsx2HVRGoTnnqX-45" value="" style="edgeStyle=orthogonalEdgeStyle;rounded=0;orthogonalLoop=1;jettySize=auto;html=1;strokeColor=default;align=center;verticalAlign=middle;fontFamily=Helvetica;fontSize=11;fontColor=default;labelBackgroundColor=default;endArrow=none;endFill=0;entryX=0.88;entryY=0.013;entryDx=0;entryDy=0;entryPerimeter=0;" edge="1" parent="1" source="7WSqbNIsx2HVRGoTnnqX-30" target="7WSqbNIsx2HVRGoTnnqX-1">
          <mxGeometry relative="1" as="geometry" />
        </mxCell>
        <mxCell id="7WSqbNIsx2HVRGoTnnqX-30" value="square_meter_price" style="ellipse;whiteSpace=wrap;html=1;fontFamily=Helvetica;fontSize=11;fontColor=default;labelBackgroundColor=default;" vertex="1" parent="1">
          <mxGeometry x="610" y="170" width="120" height="30" as="geometry" />
        </mxCell>
        <mxCell id="7WSqbNIsx2HVRGoTnnqX-47" value="" style="edgeStyle=orthogonalEdgeStyle;rounded=0;orthogonalLoop=1;jettySize=auto;html=1;strokeColor=default;align=center;verticalAlign=middle;fontFamily=Helvetica;fontSize=11;fontColor=default;labelBackgroundColor=default;endArrow=none;endFill=0;entryX=0.323;entryY=-0.004;entryDx=0;entryDy=0;entryPerimeter=0;" edge="1" parent="1" source="7WSqbNIsx2HVRGoTnnqX-31" target="7WSqbNIsx2HVRGoTnnqX-1">
          <mxGeometry relative="1" as="geometry" />
        </mxCell>
        <mxCell id="7WSqbNIsx2HVRGoTnnqX-31" value="variation" style="ellipse;whiteSpace=wrap;html=1;fontFamily=Helvetica;fontSize=11;fontColor=default;labelBackgroundColor=default;" vertex="1" parent="1">
          <mxGeometry x="490" y="120" width="60" height="30" as="geometry" />
        </mxCell>
        <mxCell id="7WSqbNIsx2HVRGoTnnqX-32" value="month" style="ellipse;whiteSpace=wrap;html=1;fontFamily=Helvetica;fontSize=11;fontColor=default;labelBackgroundColor=default;" vertex="1" parent="1">
          <mxGeometry x="570" y="120" width="60" height="30" as="geometry" />
        </mxCell>
        <mxCell id="7WSqbNIsx2HVRGoTnnqX-46" style="edgeStyle=orthogonalEdgeStyle;rounded=0;orthogonalLoop=1;jettySize=auto;html=1;exitX=0.5;exitY=1;exitDx=0;exitDy=0;entryX=0.699;entryY=0.011;entryDx=0;entryDy=0;entryPerimeter=0;strokeColor=default;align=center;verticalAlign=middle;fontFamily=Helvetica;fontSize=11;fontColor=default;labelBackgroundColor=default;endArrow=none;endFill=0;" edge="1" parent="1" source="7WSqbNIsx2HVRGoTnnqX-32" target="7WSqbNIsx2HVRGoTnnqX-1">
          <mxGeometry relative="1" as="geometry">
            <Array as="points">
              <mxPoint x="600" y="195" />
              <mxPoint x="584" y="195" />
            </Array>
          </mxGeometry>
        </mxCell>
        <mxCell id="7WSqbNIsx2HVRGoTnnqX-52" style="edgeStyle=orthogonalEdgeStyle;rounded=0;orthogonalLoop=1;jettySize=auto;html=1;exitX=1;exitY=0.5;exitDx=0;exitDy=0;strokeColor=default;align=center;verticalAlign=middle;fontFamily=Helvetica;fontSize=11;fontColor=default;labelBackgroundColor=default;endArrow=none;endFill=0;" edge="1" parent="1" source="7WSqbNIsx2HVRGoTnnqX-50">
          <mxGeometry relative="1" as="geometry">
            <mxPoint x="499" y="490" as="targetPoint" />
          </mxGeometry>
        </mxCell>
        <mxCell id="7WSqbNIsx2HVRGoTnnqX-50" value="name" style="ellipse;whiteSpace=wrap;html=1;fontFamily=Helvetica;fontSize=11;fontColor=default;labelBackgroundColor=default;" vertex="1" parent="1">
          <mxGeometry x="400" y="474.75" width="60" height="30" as="geometry" />
        </mxCell>
        <mxCell id="7WSqbNIsx2HVRGoTnnqX-53" style="edgeStyle=orthogonalEdgeStyle;rounded=0;orthogonalLoop=1;jettySize=auto;html=1;exitX=1;exitY=0.5;exitDx=0;exitDy=0;entryX=0;entryY=0.25;entryDx=0;entryDy=0;strokeColor=default;align=center;verticalAlign=middle;fontFamily=Helvetica;fontSize=11;fontColor=default;labelBackgroundColor=default;endArrow=none;endFill=0;" edge="1" parent="1" source="7WSqbNIsx2HVRGoTnnqX-51" target="7WSqbNIsx2HVRGoTnnqX-3">
          <mxGeometry relative="1" as="geometry" />
        </mxCell>
        <mxCell id="7WSqbNIsx2HVRGoTnnqX-51" value="id" style="ellipse;whiteSpace=wrap;html=1;fontFamily=Helvetica;fontSize=11;fontColor=default;labelBackgroundColor=default;" vertex="1" parent="1">
          <mxGeometry x="400" y="439.75" width="60" height="30" as="geometry" />
        </mxCell>
        <mxCell id="7WSqbNIsx2HVRGoTnnqX-54" value="" style="edgeStyle=orthogonalEdgeStyle;rounded=0;orthogonalLoop=1;jettySize=auto;html=1;strokeColor=default;align=center;verticalAlign=middle;fontFamily=Helvetica;fontSize=11;fontColor=default;labelBackgroundColor=default;endArrow=none;endFill=0;strokeWidth=3;exitX=0.5;exitY=0;exitDx=0;exitDy=0;entryX=0.5;entryY=1;entryDx=0;entryDy=0;" edge="1" parent="1" target="7WSqbNIsx2HVRGoTnnqX-4">
          <mxGeometry relative="1" as="geometry">
            <mxPoint x="745" y="567.5" as="targetPoint" />
            <mxPoint x="745" y="470" as="sourcePoint" />
          </mxGeometry>
        </mxCell>
        <mxCell id="7WSqbNIsx2HVRGoTnnqX-55" value="N" style="edgeLabel;html=1;align=center;verticalAlign=middle;resizable=0;points=[];fontFamily=Helvetica;fontSize=11;fontColor=default;labelBackgroundColor=default;" vertex="1" connectable="0" parent="7WSqbNIsx2HVRGoTnnqX-54">
          <mxGeometry x="-0.1086" y="-1" relative="1" as="geometry">
            <mxPoint x="7" y="-20" as="offset" />
          </mxGeometry>
        </mxCell>
        <mxCell id="7WSqbNIsx2HVRGoTnnqX-56" value="&lt;font style=&quot;font-size: 8px;&quot;&gt;COUNTRY_ID&lt;/font&gt;" style="rhombus;whiteSpace=wrap;html=1;" vertex="1" parent="1">
          <mxGeometry x="711" y="456" width="68" height="68" as="geometry" />
        </mxCell>
        <mxCell id="7WSqbNIsx2HVRGoTnnqX-59" value="Populate country and state using fixtures" style="shape=note;size=10;whiteSpace=wrap;html=1;fontFamily=Helvetica;fontSize=8;labelBackgroundColor=none;fillColor=#fff2cc;strokeColor=#d6b656;" vertex="1" parent="1">
          <mxGeometry x="510" y="550" width="110" height="50" as="geometry" />
        </mxCell>
        <mxCell id="7WSqbNIsx2HVRGoTnnqX-60" value="Each request should first check for existing entries on this table. If none is found, populate accordingly and return the result" style="shape=note;size=10;whiteSpace=wrap;html=1;fontFamily=Helvetica;fontSize=8;labelBackgroundColor=none;fillColor=#fff2cc;strokeColor=#d6b656;" vertex="1" parent="1">
          <mxGeometry x="340" y="220" width="110" height="80" as="geometry" />
        </mxCell>
        <mxCell id="7WSqbNIsx2HVRGoTnnqX-63" style="edgeStyle=orthogonalEdgeStyle;rounded=0;orthogonalLoop=1;jettySize=auto;html=1;exitX=1;exitY=0.5;exitDx=0;exitDy=0;entryX=0;entryY=0.75;entryDx=0;entryDy=0;strokeColor=default;align=center;verticalAlign=middle;fontFamily=Helvetica;fontSize=11;fontColor=default;labelBackgroundColor=default;endArrow=none;endFill=0;" edge="1" parent="1" source="7WSqbNIsx2HVRGoTnnqX-61" target="7WSqbNIsx2HVRGoTnnqX-3">
          <mxGeometry relative="1" as="geometry" />
        </mxCell>
        <mxCell id="7WSqbNIsx2HVRGoTnnqX-61" value="base_uri" style="ellipse;whiteSpace=wrap;html=1;fontFamily=Helvetica;fontSize=11;fontColor=default;labelBackgroundColor=default;" vertex="1" parent="1">
          <mxGeometry x="400" y="510.25" width="60" height="30" as="geometry" />
        </mxCell>
      </root>
    </mxGraphModel>
  </diagram>
</mxfile>
